# xmcd
#
# Track frame offsets:
#	150
#	16238
#	31430
#	43793
#	62362
#	78885
#	92361
#	110641
#	125311
#	140796
#	158213
#	182747
#	198283
#	213118
#	227551
#	245720
#	264348
#	280905
#
# Disc length: 3998 seconds
#
# Revision: 2
# Processed by: cddbd v1.5.2PL0 Copyright (c) Steve Scherf et al.
# Submitted via: audiograbber 1.83.01
#
DISCID=ef0f9c12
DTITLE=Various Artist - Promo Only Country Radio 2011 - 11
DYEAR=2011
DGENRE=Country
TTITLE0=Kip Moore - Somethin' 'bout A Truck
TTITLE1=Jason Aldean - Tattoos on this Town
TTITLE2=Chris Young - You
TTITLE3=The Lost Trailors - Underdog
TTITLE4=Luke Bryan - I Don't Want this Night to End
TTITLE5=Sunny Sweeney - Drink Myself Single
TTITLE6=Brent Anderson - Amy's Song
TTITLE7=The JaneDear Girls - Merry Go Round
TTITLE8=Kevin Fowler - That Girl
TTITLE9=Chris Cagle - Got My Country on
TTITLE10=Vince Gill - Threaten Me with Heaven
TTITLE11=Ashley Gearing - Me, My Heart and I
TTITLE12=Josh Thompson - Change
TTITLE13=Blake Wise - Can't Live Without
TTITLE14=Driftwood Fire - Let it All Go
TTITLE15=Brian Milson - The Man I'm Not
TTITLE16=Aaron Russell - Smoke and Mirrors
TTITLE17=Kenny Chesney ft Grace Potter - You and Tequila (Live Version)
EXTD=
EXTT0=
EXTT1=
EXTT2=
EXTT3=
EXTT4=
EXTT5=
EXTT6=
EXTT7=
EXTT8=
EXTT9=
EXTT10=
EXTT11=
EXTT12=
EXTT13=
EXTT14=
EXTT15=
EXTT16=
EXTT17=
PLAYORDER=
